PathFileType	4	(X/Y/Z)	Patient3_R_KneeIso_Processed.trc
DataRate	CameraRate	NumFrames	NumMarkers	Units	OrigDataRate	OrigDataStartFrame	OrigNumFrames
100.000000000000	100.000000000000	4	33	mm	100.000000000000	76	       301
Frame#	Time	L.Toe			Neck			R.Toe			R.Shoulder			L.Wrist			L.Shank.Lateral			L.Elbow			R.Shank.Lateral			L.Shoulder			R.Midfoot.Lateral			L.Midfoot.Superior			R.Midfoot.Superior			R.Heel			R.Thigh.Lateral			L.Heel			R.Patella			L.Midfoot.Lateral			R.Elbow			R.Wrist			R.Shank.Inferior			Sternum			R.Thigh.Inferior			L.Shank.Inferior			R.Shank.Superior			L.Thigh.Superior			R.Thigh.Superior			R.Asis			L.Asis			L.Shank.Superior			L.Patella			Sacral			L.Thigh.Lateral			L.Thigh.Inferior			
		X1	Y1	Z1	X2	Y2	Z2	X3	Y3	Z3	X4	Y4	Z4	X5	Y5	Z5	X6	Y6	Z6	X7	Y7	Z7	X8	Y8	Z8	X9	Y9	Z9	X10	Y10	Z10	X11	Y11	Z11	X12	Y12	Z12	X13	Y13	Z13	X14	Y14	Z14	X15	Y15	Z15	X16	Y16	Z16	X17	Y17	Z17	X18	Y18	Z18	X19	Y19	Z19	X20	Y20	Z20	X21	Y21	Z21	X22	Y22	Z22	X23	Y23	Z23	X24	Y24	Z24	X25	Y25	Z25	X26	Y26	Z26	X27	Y27	Z27	X28	Y28	Z28	X29	Y29	Z29	X30	Y30	Z30	X31	Y31	Z31	X32	Y32	Z32	X33	Y33	Z33	

76	1.750000000000	649.872637761283	44.187505525129	367.244064292480	426.257427868512	1479.172383893474	351.753006513512	497.105939490354	56.230367371123	630.812920500870	467.458410579120	1459.566382319952	498.021664485604	511.536187653435	1065.148912929400	-45.380353936208	416.964849222895	321.980082475645	295.470930661922	316.866934802728	1131.215277465164	111.181271658219	468.371153504516	432.868355387827	639.372901126746	457.573954879202	1440.417657909756	205.496346590780	302.374356027269	148.560818587025	650.537785048092	531.442541319138	90.134971264972	389.182282145832	409.725771348857	155.325352264254	607.539492953729	232.251558516220	185.086524483417	580.948255096981	555.958687179474	692.570175475085	610.941117419279	363.320062017172	32.678528765439	437.659253773938	653.491217374371	506.492784579671	559.153717684583	434.841027920458	27.102644114802	365.026188233035	499.632815722837	1155.106965468554	672.420961835222	633.967100676817	1240.630485154494	476.543292943257	443.504462811515	281.404102350762	599.886741680242	565.857232940841	1387.052635332290	355.920913391749	647.052186228598	640.183319228713	548.370794663853	491.182312232539	229.499433102481	363.955560180610	562.378806954922	410.524875866767	591.671658880531	598.375326164579	726.782688358591	281.819354492560	630.005748504125	753.270535154145	546.362308901996	550.094952256851	997.406458494514	520.174902419936	558.010277651221	957.664695160138	259.310365731269	510.006300024400	380.606842131205	327.651054469880	554.524112704173	490.667484741685	335.154444052438	382.722307516079	994.989799447825	389.049114823184	494.099751950208	652.703927530691	251.104379271366	571.925080469967	602.732224323665	308.232292448409	
77	1.760000000000	649.870158706684	44.209977462424	367.243942607236	426.646565244065	1479.214518309007	351.645038673133	490.188025687243	57.885187327047	631.357342196214	467.843393106823	1459.640555428984	497.908174503237	511.594918247902	1065.128283609756	-45.387610729707	416.999143614604	322.016961488527	295.504907006876	316.968510498504	1131.286193696635	111.180801319707	467.843590095734	435.041711516202	639.227655082765	457.941337229738	1440.388976592225	205.401337508666	297.026818732326	153.679918124885	650.241304574015	531.441547610831	90.148964940585	389.171253429557	404.650110699370	158.495246331223	607.637930078346	227.815760115855	191.342416960614	580.339405199523	556.484327117976	692.731705475390	611.106697552181	363.325960344520	32.707836323207	437.633168231077	654.289426432696	506.495390409182	559.431233161304	434.843976721041	27.103872081525	365.026249680207	499.798543023899	1155.218451414938	672.411665176801	634.200209102850	1240.589861431321	476.513236797232	440.598731614239	283.979365107985	599.870144292613	566.192313891955	1387.012784181093	355.836959286007	647.774183129935	640.543146509294	548.607514741155	491.208008230301	229.505169663115	363.948570410815	561.712196493047	411.066036752345	591.914936525588	598.408484799624	726.795597406198	281.819100872376	630.466940881741	753.540409422783	546.510260005968	550.210660278582	997.427982974200	520.192490648438	558.069621666289	957.658332171315	259.335335790129	510.054956418637	380.609743388864	327.640225172443	554.631355703659	490.693453960916	335.130988299248	382.811839120365	995.055464466909	389.098886597470	494.129003769857	652.721147392600	251.114479171435	571.951738631224	602.763400464701	308.230613926277	
78	1.770000000000	649.868351692619	44.228371513741	367.244092231850	427.040518528183	1479.254113774406	351.540053214237	483.226326782981	59.685406243653	631.859016287374	468.232176014460	1459.713775979294	497.799145606504	511.668067008755	1065.109963823988	-45.391972750040	417.019276033208	322.055698380962	295.543354250207	317.081716634728	1131.355358054284	111.180953891124	467.325405338853	437.239797192439	639.099448682189	458.316609350016	1440.357893071328	205.310822295138	291.714177056488	158.932851300340	649.950708116646	531.441758701723	90.160839312942	389.161623264299	399.572366966821	161.790982575789	607.724802747191	223.429223437839	197.722095829879	579.757181128806	556.998419695498	692.888940063168	611.279482904832	363.331761539981	32.737892105285	437.607617662187	655.059131538431	506.490876235951	559.714785388441	434.847248330150	27.105279379282	365.026255193075	499.971340058020	1155.329927747374	672.408030816788	634.442263021681	1240.552839572852	476.491772991215	437.689371638472	286.623765974051	599.850566498802	566.534513361637	1386.973898101982	355.758335029197	648.486425946539	640.889662971736	548.862025905337	491.228294068186	229.511815662308	363.941729914480	561.021760942226	411.629052021359	592.164709907362	598.443964788653	726.805428579932	281.824570222938	630.927529154271	753.799348392307	546.675274451618	550.342949285331	997.447619143386	520.213767468525	558.141009416567	957.650464148117	259.362855259988	510.093063357950	380.615050489922	327.631987998504	554.723596595653	490.723751911164	335.110840989116	382.915190352598	995.122339230628	389.151327122530	494.157762018928	652.739517762396	251.126200574011	571.965841078072	602.791969655147	308.237725705737	
79	1.780000000000	649.867262145621	44.242269306523	367.244509807285	427.438699466517	1479.290666566536	351.439336788841	476.222334176971	61.631924905601	632.313801446924	468.625226126270	1459.785425213256	497.695615610421	511.755389051694	1065.093964061169	-45.392397557823	417.025205968590	322.095622622589	295.586078508907	317.206404982160	1131.421558165733	111.183308111649	466.816434210632	439.459607329283	638.990725912221	458.697881425931	1440.324164917271	205.226018808206	286.438893030159	164.317682897677	649.670223043419	531.443232889512	90.170454172077	389.153472402066	394.493310640542	165.212416646379	607.800854602833	219.091630580729	204.223974046134	579.208268901352	557.501752302532	693.040431861916	611.457442678748	363.337408661157	32.767854285644	437.583330582995	655.796489950355	506.476183451339	560.002337072338	434.850825634608	27.106877861188	365.026207731226	500.153170785624	1155.440617112466	672.410671838853	634.693593955331	1240.518664453956	476.478476189939	434.775448155128	289.334962638163	599.828012903524	566.883277762914	1386.935549443959	355.685250529112	649.187055406825	641.219527782220	549.130124425040	491.243284016630	229.519064205325	363.935709242442	560.303298921540	412.211779240404	592.418782490411	598.481328312534	726.811628733983	281.835047027068	631.385982148849	754.044208277584	546.852534847697	550.492848302756	997.464489805364	520.238058853496	558.224353044769	957.640868993498	259.392184956176	510.120632081777	380.622985961173	327.626431592382	554.799965816823	490.758048940327	335.093960519350	383.032603759018	995.190092512380	389.207046374580	494.185329658797	652.758585965621	251.139046522685	571.966429923390	602.816903784082	308.253328864884	
